<?xml version="1.0" encoding="UTF-8"?>
<!-- Generator: Adobe Illustrator 27.0.0, SVG Export Plug-In . SVG Version: 6.00 Build 0)  -->
<svg version="1.1" id="Componente_21_5" xmlns="http://www.w3.org/2000/svg" xmlns:xlink="http://www.w3.org/1999/xlink" x="0px" y="0px" viewBox="0 0 186 56.2" style="enable-background:new 0 0 186 56.2;" xml:space="preserve">
<style type="text/css">
	.st0{fill:#070707;}
	.st1{fill:#F3313F;}
	.st2{fill:#FFFFFF;}
</style>
<path id="Trazado_17294" class="st0" d="M66,39.5V18.2h-4.6c-1.5,0.1-2.8-1.1-2.9-2.6c0-0.1,0-0.2,0-0.3c0-1.6,1.2-2.9,2.8-2.9  c0,0,0.1,0,0.1,0H77c1.6,0,2.9,1.2,2.9,2.8c0,0,0,0.1,0,0.1c0.1,1.5-1,2.8-2.5,2.9c-0.1,0-0.2,0-0.3,0h-4.6v21.3  c0.1,1.8-1.3,3.2-3.1,3.3s-3.2-1.3-3.3-3.1C66,39.7,66,39.6,66,39.5"/>
<path id="Trazado_17295" class="st0" d="M113.5,27c1.2-2.3,4.1-3.2,6.4-2c0.3,0.2,0.6,0.4,0.9,0.6c1,0.9,1.6,2.2,1.7,3.6h-9.7  C112.9,28.4,113.2,27.7,113.5,27 M125.5,35c-1.6,0-3.7,2.4-6.8,2.4c-2.8,0-5.3-1.4-5.7-4.3h12.8c1.8,0,2.6-0.9,2.6-2.7  c0-5-4.3-10.9-10.8-10.9c-6.3,0-10.8,5.5-10.8,11.6c0,6.6,4.5,11.5,11.3,11.5c4.5,0,9.8-2.5,9.8-5.1C127.9,36.2,126.9,35.1,125.5,35  "/>
<path id="Trazado_17296" class="st0" d="M82.4,27c1.2-2.3,4.1-3.2,6.4-2c0.3,0.2,0.6,0.4,0.9,0.6c1,0.9,1.6,2.2,1.7,3.6h-9.7  C81.8,28.4,82,27.7,82.4,27 M94.4,35c-1.6,0-3.7,2.4-6.8,2.4c-2.8,0-5.3-1.4-5.7-4.3h12.8c1.8,0,2.6-0.9,2.6-2.7  c0-5-4.3-10.9-10.8-10.9c-6.3,0-10.8,5.5-10.8,11.6c0,6.6,4.5,11.5,11.3,11.5c4.5,0,9.8-2.5,9.8-5.1C96.8,36.2,95.7,35.1,94.4,35"/>
<path id="Trazado_17297" class="st0" d="M156.4,35.5c-0.8,1.2-2.2,2-3.7,2c-3.3,0-4.8-3.2-4.8-6.2c0-2.6,1.2-5.6,3.9-6.1  c0.4-0.1,0.8-0.2,1.2-0.2c3.3,0,4.8,3.2,4.8,6.1C157.7,32.7,157.3,34.2,156.4,35.5 M152.9,19.5c-6.3,0-10.8,5.5-10.8,11.6  c0,6.3,4.3,11.5,10.8,11.5s10.8-5.3,10.8-11.5C163.7,25,159.3,19.5,152.9,19.5"/>
<path id="Trazado_17298" class="st0" d="M165.9,39.4V23.1c-0.2-1.7,1.1-3.2,2.8-3.4c0.1,0,0.2,0,0.3,0c1.4-0.1,2.6,0.9,2.8,2.2  c1.2-1.7,3-2.5,5.9-2.5c4.8,0,8.4,3.1,8.4,8.2v11.7c0.2,1.7-1,3.2-2.7,3.4c-1.7,0.2-3.2-1-3.4-2.7c0-0.2,0-0.4,0-0.6V28.7  c0-2.8-1.8-4.2-4-4.2c-2.5,0-3.9,1.8-3.9,4.2v10.7c0.2,1.7-1,3.2-2.7,3.4s-3.2-1-3.4-2.7C165.9,39.8,165.9,39.6,165.9,39.4"/>
<path id="Trazado_17299" class="st0" d="M132.2,39.4V25.3h-1.4c-1.4,0.1-2.6-0.9-2.7-2.3c0-0.1,0-0.3,0-0.4c0-1.4,1.1-2.6,2.5-2.7  c0,0,0.1,0,0.1,0h1.4v-3.7c-0.2-1.7,1-3.2,2.7-3.4c1.7-0.2,3.2,1,3.4,2.7c0,0.2,0,0.4,0,0.6V20h1.7c1.6,0,2.9,0.7,2.9,2.7  c0,1.9-1.4,2.7-2.9,2.7h-1.7v14.1c0.2,1.7-1,3.2-2.7,3.4c-1.7,0.2-3.2-1-3.4-2.7C132.2,39.8,132.2,39.6,132.2,39.4"/>
<path id="Trazado_17300" class="st0" d="M99.4,39.4V13.3c-0.2-1.7,1-3.2,2.7-3.4c1.7-0.2,3.2,1,3.4,2.7c0,0.2,0,0.4,0,0.6v26.1  c0.2,1.7-1,3.2-2.7,3.4c-1.7,0.2-3.2-1-3.4-2.7C99.3,39.8,99.3,39.6,99.4,39.4"/>
<path id="Trazado_17301" class="st1" d="M161.4,8.7c-1.3-0.6-2.8-0.3-3.7,0.7l0,0c0.2-1.4-0.6-2.8-1.9-3.4c-0.1,0-0.2-0.1-0.3-0.1  c-1.6-0.6-3.4,0.2-4.1,1.7c-0.3,0.7-0.4,1.4-0.2,2.1l1.3,7.3c0,0.2,0.1,0.4,0.2,0.5c0,0,0,0.1,0.1,0.1c0.5,0.9,1.6,1.2,2.5,0.7  c0,0,0,0,0,0l6.4-3.7c1.6-0.9,2.2-2.9,1.4-4.5C162.6,9.5,162.1,9,161.4,8.7"/>
<path id="Trazado_17302" class="st1" d="M56.2,27.1L56.2,27.1C56,21.9,54.4,17,51.6,12.7c-0.3-0.5-0.9-0.9-1.6-0.9  c-0.6,0-1.2,0.3-1.6,0.8l0,0l0,0c-0.3,0.4-0.6,0.8-0.9,1.2c-1.1,1.4-2.4,2.6-3.8,3.7c-1.2,1-2.5,1.8-3.9,2.5l-0.1,0l0,0  c-0.9,0.4-1.7,0.8-2.6,1.2c0,0,0,0,0,0c-0.1,0-0.2,0-0.2,0c-0.1-0.1,0-0.4,0-0.4c0.7-2.4,1.8-4.7,3.2-6.7c0.1-0.2,0.3-0.4,0.4-0.5  c1-1.3,2.1-2.6,3.3-3.8c0.5-0.4,0.9-0.8,1.3-1.2c0.5-0.4,0.8-0.9,0.8-1.5c0-0.6-0.3-1.2-0.8-1.6c-5-3.7-11.1-5.6-17.3-5.4  c-5.1,0.1-10.1,1.6-14.4,4.3c-0.6,0.4-1.1,0.7-1.5,1l-0.1,0c-0.3,0.2-0.5,0.5-0.6,0.7c-0.1,0.2-0.1,0.4-0.2,0.6  C10.7,7.4,11,8,11.4,8.4c2,1.7,3.8,3.6,5.2,5.8c1.4,2,2.4,4.2,3,6.6c0,0.1,0,0.2,0,0.2c0,0,0,0,0,0.1c-0.1,0.1-0.4,0-0.4,0  c-2.7-1-5.2-2.5-7.4-4.4C10.4,15.4,9.1,14,8,12.4c-0.6-0.9-1.9-1-2.7-0.4c-0.1,0.1-0.2,0.2-0.3,0.3c-0.1,0.1-0.1,0.1-0.2,0.2  c-2,3.1-5,8.9-4.8,15.5c0.1,5.4,1.7,10.7,4.6,15.3c0.4,0.5,1,0.8,1.6,0.8h0c0.1,0,0.2,0,0.2,0c0,0,0.1,0,0.1,0c0.1,0,0.1,0,0.2,0  c0.1,0,0.1,0,0.2,0c0,0,0,0,0.1,0c0.3-0.1,0.6-0.3,0.8-0.6c1.3-1.8,2.8-3.4,4.5-4.7c0.8-0.6,1.6-1.2,2.5-1.7c1.5-0.9,3-1.7,4.6-2.4  c0.1,0,0.2-0.1,0.3,0l0,0l0,0c0,0,0.1,0,0.1,0c0.1,0.1,0,0.3,0,0.3c-0.5,1.9-1.2,3.7-2.2,5.4c-0.3,0.6-0.7,1.2-1.2,1.8  c-0.4,0.6-0.8,1.1-1.2,1.6c-1.2,1.4-2.4,2.7-3.8,3.8c-0.4,0.4-0.7,0.9-0.7,1.4c0,0,0,0,0,0c0,0.5,0.2,1,0.6,1.4l0,0l0,0  c0.1,0,0.1,0.1,0.2,0.1c3.1,2.2,9.4,5.9,17,5.6c0,0,0.1,0,0.1,0c5.9-0.1,11.6-2.1,16.4-5.5c0.5-0.4,0.8-0.9,0.8-1.5  c0-0.6-0.2-1.1-0.7-1.5c-1.8-1.5-3.5-3.2-4.9-5.1c-1.5-2.3-2.7-4.9-3.6-7.5c0-0.1,0-0.2,0-0.3l0,0l0,0c0.1-0.1,0.3,0,0.3,0  c2.5,1,4.8,2.4,6.9,4c1.7,1.4,3.3,3.1,4.6,5c0.4,0.5,1,0.8,1.6,0.8c0.1,0,0.1,0,0.2,0l0.1,0l0.1,0h0c0.1,0,0.2,0,0.3-0.1l0,0  c0.1,0,0.2-0.1,0.2-0.1l0,0c0.1-0.1,0.3-0.2,0.4-0.3l0,0c0.1-0.1,0.2-0.2,0.3-0.4c3-4.6,4.6-10,4.6-15.5  C56.2,27.7,56.2,27.4,56.2,27.1"/>
<path id="Trazado_17303" class="st2" d="M2.6,27.5c0-0.1,0-0.1,0-0.2c0.2-4.4,1.5-8.7,3.8-12.4l0,0c0,0,0.1,0,0.1,0  c0.1,0,0.2,0,0.2,0.1c1.1,1.3,2.2,2.5,3.5,3.6c2.6,2.3,5.6,4,8.9,5.2c0.7,0.2,1.5,0.3,2.2,0.1c0.1,0,0.2-0.1,0.3-0.2  c0.2-0.2,0.4-0.4,0.5-0.6v0c0.2-0.6,0.3-1.3,0.3-1.9c0-0.5-0.4-3.3-3.5-8.2c-1.4-2.1-3-4.1-5-5.7c0,0-0.1-0.1-0.1-0.1v0  c0,0,0-0.1,0.1-0.1c4.1-2.7,8.8-4.2,13.7-4.3C32.9,2.4,38.2,4,42.5,7c0,0,0,0,0,0.1c0,0,0,0,0,0.1c0,0.1,0,0.1-0.1,0.2  c-1.6,1.4-3,3-4.3,4.7c-1.5,2.1-2.7,4.3-3.5,6.7c-0.2,0.5-0.3,1-0.4,1.5v0l0,0.2c0,0,0,0.1,0,0.1s0,0,0,0.1c0,0,0,0.1,0,0.1l0,0  c0,0.1,0,0.1,0,0.2v0c0,0.1,0,0.1,0,0.2v0c0,0.1,0,0.1,0,0.2v0c0,0.1,0,0.1,0,0.2v0c0,0.1,0,0.1,0,0.2l0,0c0,0.4,0,0.8,0.2,1.3l0,0  c0,0,0,0.1,0,0.1l0,0.1c0,0,0,0.1,0.1,0.1s0,0,0,0.1s0,0.1,0.1,0.1c0,0,0,0,0,0l0,0l0,0c0,0,0.1,0.1,0.1,0.1l0,0  c0.1,0.1,0.1,0.1,0.2,0.1c0.4,0.2,0.9,0.4,1.3,0.3c0.4,0,0.7-0.1,1.1-0.1c0,0,0.2-0.1,0.4-0.1c2.7-1,5.3-2.4,7.6-4.2  c1.1-0.9,2.2-1.9,3.2-2.9c0.5-0.6,1-1.1,1.4-1.6l0,0l0,0l0,0l0,0c0,0,0.1,0,0.1,0l0,0c0,0,0.1,0,0.1,0.1c2.2,3.8,3.5,8.1,3.6,12.4  C36.7,29.7,19.5,29.7,2.6,27.5"/>
</svg>